<svg id="Group_29" data-name="Group 29" xmlns="http://www.w3.org/2000/svg" width="100" height="99.982" viewBox="0 0 100 99.982">
  <path id="Path_24" data-name="Path 24" d="M1816.5,75.031H1829c.358,1.845.695,3.694,1.1,5.528.049.223.439.418.71.535,1.579.679,3.185,1.3,4.747,2.011a1.083,1.083,0,0,0,1.227-.077c1.451-.977,2.928-1.916,4.447-2.9,2.747,2.756,5.464,5.465,8.146,8.206a1.055,1.055,0,0,1,.1.913c-.439,1.164-.95,2.3-1.456,3.5a11.376,11.376,0,0,1,10.792,6.927c1.2,2.5,1.1,5.186,1.01,7.852a11.253,11.253,0,0,1-4.221,8.561,3.953,3.953,0,0,0-.61.9,4.055,4.055,0,0,0,.9.547q3.78,1.1,7.581,2.136a1.272,1.272,0,0,0,.8-.172c1.389-.708,2.759-1.455,4.149-2.161a2.719,2.719,0,0,1,1.091-.337c1.071-.034,2.145.008,3.217.021v23.628a2.377,2.377,0,0,0-.457.125q-14,6.987-27.978,14.007a1.458,1.458,0,0,0-.611,1.032,4.867,4.867,0,0,1-4.091,4.563.847.847,0,0,0-.841.84,4.687,4.687,0,0,1-4.055,4.021c-.544.079-.722.3-.77.782a3.357,3.357,0,0,1-.172.757,4.942,4.942,0,0,1-4.5,3.426c-.733,3.38-2.664,5.013-5.61,4.8a5.651,5.651,0,0,1-3.646-1.874,1.053,1.053,0,0,0-1.427-.221,4.923,4.923,0,0,1-6.969-3.576.958.958,0,0,0-.9-.911,4.852,4.852,0,0,1-3.912-3.645,9.737,9.737,0,0,1-.2-1.029,5.18,5.18,0,0,1-4.843-4.812c-3-.652-4.032-1.648-4.78-4.571a.819.819,0,0,0-.262-.475c-1.5-.927-3.022-1.831-4.4-2.658-.416.479-.719,1.131-1.036,1.139a11.576,11.576,0,0,1-3.652-.291c-4.68-1.459-9.31-3.076-13.972-4.6a1.129,1.129,0,0,1-.929-1.293q.043-15.715.021-31.431c0-.315.029-.631.047-1,2.759-.022,5.5-.484,7.849,1.487.687.577,1.635.84,2.329,1.411a5.87,5.87,0,0,0,6.565.906c.328-.145.634-.343.95-.516a4.032,4.032,0,0,0-.638-.982,11.631,11.631,0,0,1-3.694-5.508,19.179,19.179,0,0,1-.482-6.778,10.778,10.778,0,0,1,6.757-10,30.673,30.673,0,0,1,4.913-1.281c-.407-.975-.9-2.1-1.331-3.243a1.064,1.064,0,0,1,.1-.916c2.683-2.743,5.4-5.452,8.147-8.208,1.52.988,2.973,1.965,4.467,2.876a1.436,1.436,0,0,0,1.105.111c1.666-.634,3.307-1.334,4.947-2.035.242-.1.573-.3.618-.513C1815.8,78.725,1816.141,76.876,1816.5,75.031Zm53,45.4c-.486.243-.826.405-1.16.581-9.2,4.842-18.411,9.665-27.587,14.555a5.782,5.782,0,0,1-3.633.686,11.649,11.649,0,0,1-1.61-.375c-2.78-.791-5.56-1.582-8.334-2.393a7.491,7.491,0,0,0-5.6.38q-4.371,2.155-8.713,4.367a2.409,2.409,0,0,0-1.115,3.372c.651,1.186,1.984,1.443,3.367.625,1.707-1.009,3.4-2.039,5.1-3.054,3.19-1.9,5.9-1.657,8.648.806q6.43,5.767,12.832,11.564a1.064,1.064,0,0,0,1.426.209q12.754-6.419,25.54-12.776a1.332,1.332,0,0,0,.853-1.415c-.027-5.335-.015-10.671-.015-16.007Zm-50.309,11c-3.038-1.17-5.972-1.947-8.973-1.448-4.129.687-8.208,1.687-12.3,2.587a1.112,1.112,0,0,0-.7.637q-2.059,7.062-4.035,14.149a.8.8,0,0,0,.21.711c1.5.947,3.033,1.849,4.558,2.765,1.219-1.231,2.3-2.461,3.52-3.526a4.935,4.935,0,0,1,8.227,2.8c.124.6.4.765.945.865a4.662,4.662,0,0,1,3.489,2.691,14.4,14.4,0,0,1,.626,1.976,5.179,5.179,0,0,1,4.782,4.837,6.491,6.491,0,0,1,4.237,2.631,22.394,22.394,0,0,0,4.264,3.525,1.719,1.719,0,1,0,1.951-2.83c-.608-.539-1.246-1.045-1.87-1.567l-6.4-5.346,2.043-2.446c.2.147.333.236.457.339,2.676,2.227,5.344,4.463,8.027,6.68a2.059,2.059,0,0,0,2.97.033c.721-.843.5-1.789-.638-2.745q-2.957-2.473-5.919-4.941c-.688-.576-1.369-1.161-2.092-1.774l2.057-2.449c2.818,2.345,5.543,4.614,8.271,6.879a4.85,4.85,0,0,0,.787.569,1.959,1.959,0,0,0,2.4-.433,1.753,1.753,0,0,0-.206-2.383c-.153-.167-.331-.312-.5-.464q-6.276-5.647-12.553-11.295c-1.712-1.541-3.021-1.67-5.022-.477-1.871,1.115-3.706,2.3-5.621,3.329a5.528,5.528,0,1,1-4.729-9.992C1813.964,134.056,1816.484,132.794,1819.194,131.434Zm-12.462-4.2c.345-.055.689-.1,1.03-.165a20.076,20.076,0,0,1,9.081.257c3.777,1.051,7.565,2.064,11.344,3.113,2.879.8,5.748,1.634,8.626,2.436a7.9,7.9,0,0,0,1.243.187c.641.072.851-.244.841-.864-.027-1.724.029-3.449-.02-5.172a4.829,4.829,0,0,0-3.992-4.958c-2.7-.7-5.412-1.386-8.129-2.033-.586-.139-.809-.369-.788-.976.04-1.17.04-2.343-.01-3.513a1.188,1.188,0,0,1,.7-1.234,7.417,7.417,0,0,0,3.837-4.939,15.388,15.388,0,0,0-.211-7.814,8.143,8.143,0,0,0-7.5-5.551,7.709,7.709,0,0,0-7.628,5.679,25.837,25.837,0,0,0-.408,5.9,6.423,6.423,0,0,0,2.812,5.725c1.909,1.175,2.176,2.64,1.963,4.525a3.091,3.091,0,0,0,0,.877c.162.9-.272,1.228-1.1,1.42-2.658.613-5.3,1.281-7.944,1.967A4.676,4.676,0,0,0,1806.731,127.234Zm35.274,3.993,17.81-9.382c-2.623-.66-4.941-1.272-7.276-1.813a.819.819,0,0,1-.759-.989c.035-1.17.04-2.343-.008-3.512a1.2,1.2,0,0,1,.7-1.231,7.482,7.482,0,0,0,3.9-5.328,16.1,16.1,0,0,0-.243-7.244A8.184,8.184,0,0,0,1848.661,96a7.812,7.812,0,0,0-7.728,5.692,23.818,23.818,0,0,0-.423,4.922,8.145,8.145,0,0,0,4.23,7.794,1.391,1.391,0,0,1,.573.967c.068,1.232,0,2.471.037,3.706a.774.774,0,0,1-.721.925c-1.568.353-3.12.78-4.815,1.212a7.822,7.822,0,0,1,2.168,4.6C1842.086,127.538,1842.005,129.262,1842.005,131.227Zm-36.29-10.006c-1.576-.4-2.948-.8-4.344-1.069-.91-.179-1.335-.522-1.235-1.525a19.53,19.53,0,0,0,0-3.021,1.25,1.25,0,0,1,.737-1.311,7.742,7.742,0,0,0,4-5.8,14.839,14.839,0,0,0,.068-3.985,14.474,14.474,0,0,0-1.127-4.273c-1.412-2.973-4.53-4.472-8.031-4.129a7.684,7.684,0,0,0-6.432,5.5,25.149,25.149,0,0,0-.449,5.013,8.143,8.143,0,0,0,4.226,7.795,1.28,1.28,0,0,1,.54.889c.06,1.3.06,2.6,0,3.9a1.062,1.062,0,0,1-.6.751c-.911.311-1.86.514-2.833.768.1.125.132.19.183.22,1.819,1.071,3.644,2.132,5.458,3.211.886.527,2.1.9,2.53,1.688s.077,2.024.074,3.063c0,.051.06.1.115.191,1.412-.313,2.84-.608,4.253-.966a.858.858,0,0,0,.529-.611A8.65,8.65,0,0,1,1805.716,121.221Zm5.75-15.589c0-.653-.033-1.37.005-2.083a11.285,11.285,0,0,1,7.862-10.243,10.97,10.97,0,0,1,12.135,3.8c3.141,4.034,3.042,8.645,2.062,13.308a10.211,10.211,0,0,1-3.825,5.74,1.86,1.86,0,0,0-.478.858c-.026.079.252.341.425.386,1.917.5,3.838.987,5.765,1.445a1.935,1.935,0,0,0,.852-.082c1.672-.407,3.344-.816,5.006-1.262.294-.079.73-.311.76-.521.037-.259-.241-.6-.454-.85a21.4,21.4,0,0,1-2.553-2.911c-2.478-4.246-2.252-8.76-.928-13.291a1.878,1.878,0,0,0-.184-1.779c-3.882-5.937-9.321-8.946-16.44-8.475-6.3.417-11,3.586-14.173,9.015a1.682,1.682,0,0,0-.05,1.065,41.635,41.635,0,0,1,.959,4.645c.374,4.653-.524,8.882-4.522,11.917-.558.424-.38.948.34,1.133,1.792.463,3.586.919,5.388,1.342a2.338,2.338,0,0,0,1.039-.032q2.559-.61,5.1-1.286c.268-.071.7-.319.691-.465a1.552,1.552,0,0,0-.454-.858c-.6-.641-1.3-1.191-1.847-1.865A12,12,0,0,1,1811.466,105.632Zm29.048-9.551a8.135,8.135,0,0,1,1.835-1.4,4.571,4.571,0,0,0,2.72-3.293c.01-.031.032-.057.045-.087.809-1.888.806-1.885-.625-3.325-1.228-1.237-2.449-2.481-3.682-3.733-1.415.92-2.708,1.731-3.965,2.593a.954.954,0,0,1-1.219.014,23.9,23.9,0,0,0-7.428-3.1,1.066,1.066,0,0,1-.98-.989c-.2-1.25-.533-2.477-.752-3.723-.106-.6-.373-.8-.975-.784-1.821.034-3.644.041-5.464,0-.674-.016-.893.255-1,.871-.211,1.215-.546,2.409-.741,3.626a1.07,1.07,0,0,1-.969,1,23.218,23.218,0,0,0-7.343,3.048,1.134,1.134,0,0,1-1.47-.06c-1.227-.843-2.491-1.633-3.841-2.509-.833.865-1.618,1.685-2.407,2.5-.857.887-2.242,1.674-2.429,2.684-.2,1.053.748,2.327,1.227,3.491a2.182,2.182,0,0,0,.613.943c1.073.77,2.2,1.471,3.3,2.2C1813.157,82.8,1832.583,83.464,1840.513,96.082ZM1782.9,147.128c1.963-7.853,3.9-15.617,5.852-23.408-3.8-2.211-7.523-4.4-11.271-6.536a4.4,4.4,0,0,0-1.4-.249,3.933,3.933,0,0,0-.087.513q-.007,13.362.02,26.725a1.175,1.175,0,0,0,.65.853C1778.684,145.75,1780.724,146.4,1782.9,147.128Zm6.327,2.108c.12-.361.23-.659.317-.963q1.036-3.6,2.065-7.21c1.178-4.121,2.369-8.238,3.514-12.367.11-.4.108-1.105-.125-1.271-1.019-.724-2.142-1.3-3.346-2l-5.684,22.725Zm32.087,16.147a7.111,7.111,0,0,0-1.229-1.423,1.539,1.539,0,0,0-1.972.271c-.95.887-1.881,1.8-2.776,2.739a1.807,1.807,0,1,0,2.551,2.543c.9-.846,1.781-1.716,2.608-2.632A7.893,7.893,0,0,0,1821.318,165.383Zm-14.494-14.46a7.623,7.623,0,0,0-1.277-1.486,1.529,1.529,0,0,0-1.968.3c-.926.865-1.824,1.761-2.7,2.675a1.828,1.828,0,0,0-.164,2.687,1.8,1.8,0,0,0,2.688-.12c.875-.825,1.733-1.67,2.543-2.558A9.2,9.2,0,0,0,1806.824,150.922Zm4.976,14.369c.124-.032.449-.018.609-.173,1.251-1.215,2.545-2.4,3.667-3.728a1.448,1.448,0,0,0-.4-2.009,1.505,1.505,0,0,0-2.051-.2,26.155,26.155,0,0,0-3.483,3.514C1809.3,163.77,1810.295,165.3,1811.8,165.291Zm-.126-9.569a7.008,7.008,0,0,0-1.32-1.467,1.6,1.6,0,0,0-1.975.334c-.92.872-1.825,1.762-2.694,2.684a1.8,1.8,0,0,0-.111,2.687,1.826,1.826,0,0,0,2.687-.17c.869-.831,1.73-1.674,2.538-2.564A9.086,9.086,0,0,0,1811.674,155.722Zm10.1,14.6c.837.892,1.711,1.835,3.059,1.3a2.058,2.058,0,0,0,1.051-1.438c.144-1.372-1.17-1.745-1.856-2.513Z" transform="translate(-1772.737 -75.031)"/>
</svg>
