<svg id="Group_32" data-name="Group 32" xmlns="http://www.w3.org/2000/svg" width="100" height="99.988" viewBox="0 0 100 99.988">
  <path id="Path_31" data-name="Path 31" d="M116.233,373.375h2.892v-2.893h-2.892Z" transform="translate(-107.23 -282.393)" fill="none"/>
  <path id="Path_32" data-name="Path 32" d="M119.12,315.811h-2.892V318.7h2.892Z" transform="translate(-107.226 -246.376)" fill="none"/>
  <path id="Path_33" data-name="Path 33" d="M170.927,309.358h2.9v-20.8h-2.9Z" transform="translate(-143.265 -218.359)" fill="none"/>
  <path id="Path_34" data-name="Path 34" d="M88.991,315.291h8.862v-2.948c-1.441,0-2.829.008-4.216,0a1.518,1.518,0,0,1-1.713-1.692q-.016-2.759,0-5.518a1.529,1.529,0,0,1,1.741-1.739c1.69-.008,3.381,0,5.071,0,1.729,0,2.139.416,2.139,2.166q0,1.885,0,3.766h2.941v-20.8H88.991Zm2.939-22.323a1.45,1.45,0,0,1,1.507-1.508c.992-.026,1.985-.006,2.978-.007.943,0,1.887-.013,2.829,0a1.5,1.5,0,0,1,1.624,1.624q.022,2.866,0,5.733a1.472,1.472,0,0,1-1.586,1.586q-2.9.026-5.808,0a1.461,1.461,0,0,1-1.546-1.547Q91.9,295.909,91.93,292.968Z" transform="translate(-85.936 -218.324)" fill="none"/>
  <path id="Path_35" data-name="Path 35" d="M266.869,94.794c-1.161-1.153-1.162-1.786,0-2.939.96-.952,1.934-1.892,3.039-2.972h-12.79v8.85h12.743C268.783,96.675,267.821,95.739,266.869,94.794Z" transform="translate(-202.618 -85.856)" fill="none"/>
  <path id="Path_36" data-name="Path 36" d="M213.642,236.288c.029-.522-.214-.715-.991-.839q-16.587-2.631-33.161-5.3a6.227,6.227,0,0,0-1.862.007q-13.479,2.13-26.944,4.3-3.586.574-7.173,1.162v4.137h70.112C213.623,238.569,213.579,237.427,213.642,236.288Z" transform="translate(-128.553 -184.269)" fill="none"/>
  <path id="Path_37" data-name="Path 37" d="M198.275,309.364h6.772v-20.8h-6.772Z" transform="translate(-162.246 -218.363)" fill="none"/>
  <path id="Path_38" data-name="Path 38" d="M192.3,183.89a2.627,2.627,0,0,1,1.165-.008c3.891.914,7.776,1.855,11.664,2.788,1.22.293,2.441.58,3.691.878-.733-6.482-7.919-12.459-15.155-12.725a16.305,16.305,0,0,0-16.723,12.708c.273-.048.466-.072.653-.117Q184.95,185.648,192.3,183.89Z" transform="translate(-142.902 -144.954)" fill="none"/>
  <path id="Path_39" data-name="Path 39" d="M243.354,309.336h2.9V288.542h-2.9Z" transform="translate(-194.805 -218.343)" fill="none"/>
  <path id="Path_40" data-name="Path 40" d="M315.89,309.263h2.892V288.44H315.89Z" transform="translate(-246.426 -218.264)" fill="none"/>
  <path id="Path_41" data-name="Path 41" d="M270.774,309.245h6.775v-20.8h-6.775Z" transform="translate(-213.555 -218.27)" fill="none"/>
  <path id="Path_42" data-name="Path 42" d="M244.727,411.367a1.4,1.4,0,0,0-1.448,1.045,1.41,1.41,0,0,0,.609,1.677c.117.085.237.166.355.249h.9c.118-.083.238-.164.355-.249a1.414,1.414,0,0,0,.609-1.678A1.393,1.393,0,0,0,244.727,411.367Z" transform="translate(-194.681 -314.351)"/>
  <path id="Path_43" data-name="Path 43" d="M103.937,310.884q2.9.031,5.808,0a1.472,1.472,0,0,0,1.586-1.586q.027-2.866,0-5.733a1.5,1.5,0,0,0-1.624-1.624c-.943-.016-1.886,0-2.829,0-.993,0-1.986-.019-2.978.007a1.45,1.45,0,0,0-1.507,1.508q-.034,2.941,0,5.882A1.461,1.461,0,0,0,103.937,310.884Zm1.463-5.921h2.892v2.891H105.4Z" transform="translate(-96.399 -235.069)"/>
  <g id="Group_31" data-name="Group 31" transform="translate(0 0)">
    <path id="Path_44" data-name="Path 44" d="M198.275,309.364h6.772v-20.8h-6.772Z" transform="translate(-162.246 -218.363)" fill="none"/>
    <path id="Path_45" data-name="Path 45" d="M213.642,236.288c.029-.522-.214-.715-.991-.839q-16.587-2.631-33.161-5.3a6.227,6.227,0,0,0-1.862.007q-13.479,2.13-26.944,4.3-3.586.574-7.173,1.162v4.137h70.112C213.623,238.569,213.579,237.427,213.642,236.288Z" transform="translate(-128.553 -184.269)" fill="none"/>
    <path id="Path_46" data-name="Path 46" d="M170.927,309.358h2.9v-20.8h-2.9Z" transform="translate(-143.265 -218.359)" fill="none"/>
    <path id="Path_47" data-name="Path 47" d="M243.354,309.336h2.9V288.542h-2.9Z" transform="translate(-194.805 -218.343)" fill="none"/>
    <path id="Path_48" data-name="Path 48" d="M116.233,373.375h2.892v-2.893h-2.892Z" transform="translate(-107.23 -282.393)" fill="none"/>
    <path id="Path_49" data-name="Path 49" d="M88.991,315.291h8.862v-2.948c-1.441,0-2.829.008-4.216,0a1.518,1.518,0,0,1-1.713-1.692q-.016-2.759,0-5.518a1.529,1.529,0,0,1,1.741-1.739c1.69-.008,3.381,0,5.071,0,1.729,0,2.139.416,2.139,2.166q0,1.885,0,3.766h2.941v-20.8H88.991Z" transform="translate(-85.936 -218.324)" fill="none"/>
    <path id="Path_50" data-name="Path 50" d="M270.774,309.245h6.775v-20.8h-6.775Z" transform="translate(-213.555 -218.27)" fill="none"/>
    <path id="Path_51" data-name="Path 51" d="M343.117,309.279h2.956c0-1.425-.006-2.791,0-4.157a1.53,1.53,0,0,1,1.729-1.751q2.722-.013,5.444,0c1.227,0,1.772.55,1.777,1.779q.01,2.647,0,5.295c0,1.367-.52,1.875-1.905,1.877-1.334,0-2.668,0-4.012,0v2.926h8.865V288.49H343.117Zm2.965-16.32a1.442,1.442,0,0,1,1.5-1.518q2.978-.036,5.956,0a1.451,1.451,0,0,1,1.484,1.532c.024.992.005,1.985.006,2.978,0,.943.015,1.887,0,2.829a1.481,1.481,0,0,1-1.576,1.6q-2.9.028-5.808,0a1.459,1.459,0,0,1-1.557-1.536Q346.05,295.9,346.082,292.958Z" transform="translate(-260.995 -218.303)" fill="none"/>
    <path id="Path_52" data-name="Path 52" d="M315.89,309.263h2.892V288.44H315.89Z" transform="translate(-246.426 -218.264)" fill="none"/>
    <path id="Path_53" data-name="Path 53" d="M192.3,183.89a2.627,2.627,0,0,1,1.165-.008c3.891.914,7.776,1.855,11.664,2.788,1.22.293,2.441.58,3.691.878-.733-6.482-7.919-12.459-15.155-12.725a16.305,16.305,0,0,0-16.723,12.708c.273-.048.466-.072.653-.117Q184.95,185.648,192.3,183.89Z" transform="translate(-142.902 -144.954)" fill="none"/>
    <path id="Path_54" data-name="Path 54" d="M266.869,94.794c-1.161-1.153-1.162-1.786,0-2.939.96-.952,1.934-1.892,3.039-2.972h-12.79v8.85h12.743C268.783,96.675,267.821,95.739,266.869,94.794Z" transform="translate(-202.618 -85.856)" fill="none"/>
    <path id="Path_55" data-name="Path 55" d="M172.345,132.027c-3.969.057-7.939.021-11.909.021h-1.058c0-2.3,0-4.446,0-6.592a2.058,2.058,0,0,0-1.868-2.418c-2.177-.538-4.355-1.067-6.54-1.571a1.14,1.14,0,0,1-1.014-1.046c-2.113-9.854-7.932-16.458-17.511-19.643a54.138,54.138,0,0,0-5.407-1.224v-5h1.14q9.957,0,19.914.006a2.056,2.056,0,0,0,2.135-1.212,1.994,1.994,0,0,0-.633-2.368c-.578-.572-1.149-1.151-1.725-1.726l-4.441-4.433c.285-.308.494-.548.719-.773q2.655-2.66,5.318-5.313a2.115,2.115,0,0,0,.76-2.511,2.18,2.18,0,0,0-2.335-1.206q-11.129.024-22.257.009c-1.931,0-2.572.641-2.572,2.573q0,10.494,0,20.988v1.07c-.35.059-.6.118-.855.143a25.344,25.344,0,0,0-22.15,20.653,1.057,1.057,0,0,1-.939,1.006c-1.837.42-3.669.864-5.5,1.313-2.931.718-2.971.776-2.971,3.79v5.483c-4.421,0-8.712,0-13,0-2.009,0-2.619.611-2.619,2.624q0,18.84-.021,37.681a2.661,2.661,0,0,0,1.387,2.655h40.421c.1-.074.2-.153.3-.222a1.953,1.953,0,0,0-1.077-3.679q-7.956-.015-15.911,0H94.611v-3.854h60.784V171.1h-1.011c-6.735,0-31.731,0-38.467,0-1.53,0-2.614.982-2.263,2.211.181.636.849,1.133,1.3,1.692H175V133.416A2.641,2.641,0,0,0,172.345,132.027ZM127.034,78.982H143.77c-1.447,1.413-2.72,2.643-3.977,3.889-1.521,1.508-1.519,2.336,0,3.845,1.246,1.238,2.5,2.462,3.915,3.846H127.034Zm-1.023,24.567c9.469.348,18.872,8.17,19.832,16.652-1.637-.389-3.234-.765-4.831-1.148-5.087-1.22-10.171-2.452-15.263-3.648a3.437,3.437,0,0,0-1.525.011q-9.627,2.28-19.242,4.61c-.246.059-.5.09-.855.154A21.337,21.337,0,0,1,126.01,103.548ZM94.575,126.569c2.08-.508,4.154-1.019,6.23-1.521q11.7-2.823,23.4-5.626a3.616,3.616,0,0,1,1.617-.01c9.6,2.3,19.2,4.634,28.8,6.929.675.161.886.414.861,1.1-.055,1.491-.017,2.985-.017,4.543h-60.9ZM98.4,163.244H94.548q0-2.46,0-4.928c0-2.29-.537-2.834-2.8-2.834-2.212,0-4.424-.008-6.636,0a2,2,0,0,0-2.278,2.275q-.015,3.61,0,7.221a1.987,1.987,0,0,0,2.242,2.214c1.816.013,3.631,0,5.517,0v3.858H79V136.02H98.4Zm-7.831-3.806v3.786H86.781v-3.786Zm15.632,3.808h-3.79V136.033h3.79Zm12.885,0h-8.862V136.034h8.862Zm7.819-.012h-3.8v-27.21h3.8Zm12.9-.022h-8.866V136H139.8Zm7.809.031h-3.784V136h3.784Zm23.436,7.78h-11.6V167.2c1.758,0,3.5,0,5.25,0,1.813,0,2.49-.669,2.493-2.457q.007-3.464,0-6.929c-.006-1.607-.72-2.322-2.325-2.328q-3.562-.013-7.124,0a2,2,0,0,0-2.263,2.291c-.01,1.788,0,3.575,0,5.44H151.6v-27.2h19.441Zm-11.608-7.8v-3.785h3.8v3.785Z" transform="translate(-75 -75.021)"/>
    <path id="Path_56" data-name="Path 56" d="M358.193,310.874q2.9.029,5.808,0a1.481,1.481,0,0,0,1.576-1.6c.018-.943,0-1.886,0-2.829,0-.993.018-1.986-.006-2.978a1.451,1.451,0,0,0-1.484-1.532q-2.978-.039-5.956,0a1.442,1.442,0,0,0-1.5,1.518q-.032,2.941,0,5.882A1.459,1.459,0,0,0,358.193,310.874Zm1.462-5.926h2.912v2.9h-2.912Z" transform="translate(-271.551 -235.058)"/>
  </g>
</svg>
