<svg id="Group_905" data-name="Group 905" xmlns="http://www.w3.org/2000/svg" xmlns:xlink="http://www.w3.org/1999/xlink" width="100" height="100.028" viewBox="0 0 100 100.028">
  <defs>
    <clipPath id="clip-path">
      <rect id="Rectangle_596" data-name="Rectangle 596" width="100" height="100.028" fill="none"/>
    </clipPath>
  </defs>
  <g id="Group_904" data-name="Group 904" clip-path="url(#clip-path)">
    <path id="Path_273" data-name="Path 273" d="M0,226.863a3.052,3.052,0,0,1,2.184-1.578c3.335-.86,6.659-1.76,9.979-2.677a6.242,6.242,0,0,1,6.127,1.2,1.436,1.436,0,0,0,1.123.146c4.81-1.255,9.623-2.5,14.409-3.843a11.173,11.173,0,0,1,9.08,1.18c8.761,5.114,17.562,10.157,26.345,15.234,3.419,1.976,4.78,4.737,4.26,8.774.369-.073.7-.124,1.023-.206,5.325-1.342,10.643-2.71,15.974-4.026a7.785,7.785,0,0,1,9.061,4.985c1.265,3.706-.348,7.99-3.877,9.474-3.255,1.37-6.657,2.4-10.009,3.531q-8.954,3.034-17.93,6c-1.191.392-2.448.584-3.675.868H60.948c-4.559-.465-8.256-2.952-12.078-5.145-4.876-2.8-9.815-5.494-14.605-8.433-2.581-1.583-5.087-1.467-7.742-.584a1.008,1.008,0,0,0-.537.583,5.976,5.976,0,0,1-4.409,4.146q-5.269,1.415-10.544,2.809c-1.706.45-2.56-.058-3.023-1.783q-3.03-11.292-6.058-22.584c-.623-2.31-1.3-4.6-1.952-6.907v-1.172m25.66,21.071c.709-.169,1.306-.316,1.906-.454a9.729,9.729,0,0,1,5.484.083A16.793,16.793,0,0,1,35.8,248.8c6.843,3.885,13.641,7.85,20.514,11.681a12.088,12.088,0,0,0,9.923.961c8.983-2.95,17.938-5.984,26.9-9a3.9,3.9,0,1,0-2.214-7.482q-7.183,1.819-14.363,3.649a56.14,56.14,0,0,0-7.04,1.929A8.56,8.56,0,0,1,61.5,250.1c-5.284-3.074-10.587-6.117-15.88-9.176a5.473,5.473,0,0,1-.807-.543,1.94,1.94,0,0,1-.454-2.463,1.9,1.9,0,0,1,2.373-.793,6.435,6.435,0,0,1,.955.482q5.494,3.166,10.985,6.338c1.8,1.039,3.577,2.134,5.426,3.086a3.857,3.857,0,0,0,5.59-2.716,4.01,4.01,0,0,0-2.278-4.342Q54.021,232.237,40.633,224.5a6.776,6.776,0,0,0-5.439-.709c-2.664.731-5.336,1.431-8,2.149-2.281.614-4.561,1.234-6.92,1.873l5.389,20.121m-14.237,7.238c3.213-.866,6.355-1.677,9.471-2.574a1.906,1.906,0,0,0,1.274-2.58Q19.217,238.953,16.23,227.9a1.984,1.984,0,0,0-2.648-1.6c-.557.114-1.1.3-1.679.467,1.142,4.277,2.259,8.448,3.365,12.623a4.179,4.179,0,0,1,.173,1.148,1.743,1.743,0,0,1-1.409,1.76,1.777,1.777,0,0,1-2.1-.836,4.274,4.274,0,0,1-.414-1.087c-.857-3.167-1.7-6.339-2.553-9.507-.274-1.018-.567-2.031-.867-3.1l-3.742,1.014,7.073,26.4" transform="translate(0 -165.905)"/>
    <path id="Path_274" data-name="Path 274" d="M276.176,39.6c-.711,8.4-4.917,15.594-13.806,19.214-8,3.26-15.482,1.687-21.883-4.16a21.95,21.95,0,0,1-7.24-16.578,19.274,19.274,0,0,1,2.967-10.664c5.506-8.751,11.086-17.455,16.648-26.17,1.064-1.667,2.64-1.653,3.712.027q8.288,12.992,16.544,26.005c2.17,3.44,3.121,7.256,3.057,12.326M254.706,5.687c-.18.251-.315.422-.432.605q-7.053,11.06-14.095,22.128a20.765,20.765,0,0,0-1.53,2.823,17.249,17.249,0,0,0,.65,15.512,17.03,17.03,0,0,0,12.846,9.478,17.513,17.513,0,0,0,19.024-11.793A17.766,17.766,0,0,0,269.241,28.4Q262.206,17.39,255.19,6.364c-.133-.209-.289-.4-.484-.676" transform="translate(-176.179 0)"/>
    <path id="Path_275" data-name="Path 275" d="M55.836,329.565a1.91,1.91,0,0,1,1.921-1.917,1.931,1.931,0,0,1,1.9,1.945,1.909,1.909,0,0,1-1.931,1.9,1.878,1.878,0,0,1-1.891-1.929" transform="translate(-42.175 -247.485)"/>
    <path id="Path_276" data-name="Path 276" d="M328.655,130.74a14.257,14.257,0,0,1-12.375,14,5.778,5.778,0,0,1-1.649-.01,1.893,1.893,0,0,1-1.579-1.848,1.921,1.921,0,0,1,1.538-1.886c.569-.122,1.165-.115,1.737-.225a10.047,10.047,0,0,0,7.779-6.776,9.541,9.541,0,0,0-.8-8.53c-.895-1.557-.376-3.058,1.1-3.293a1.992,1.992,0,0,1,2.115,1.074,14.046,14.046,0,0,1,2.131,7.5" transform="translate(-236.461 -92.255)"/>
  </g>
</svg>
